HIERARCHY
ROOT Hips
{
	OFFSET 0.000000 0.000000 0.000000
	CHANNELS 6 Xposition Yposition Zposition Xrotation Yrotation Zrotation
	JOINT LeftUpLeg_virtual
	{
		OFFSET 0.000000 0.000000 0.000000
		CHANNELS 3 Xrotation Yrotation Zrotation
		JOINT LeftUpLeg
		{
			OFFSET 15.427100 -6.655098 0.678600
			CHANNELS 3 Xrotation Yrotation Zrotation
			JOINT LeftLeg
			{
				OFFSET 4.081073 -39.591068 13.024000
				CHANNELS 3 Xrotation Yrotation Zrotation
				JOINT LeftFoot
				{
					OFFSET -4.081074 -37.707932 -15.979700
					CHANNELS 3 Xrotation Yrotation Zrotation
					JOINT LeftToeBase
					{
						OFFSET 5.346399 -15.068900 20.645000
						CHANNELS 3 Xrotation Yrotation Zrotation
						JOINT LeftToe_End
						{
							OFFSET 2.754700 0.931300 11.300900
							CHANNELS 3 Xrotation Yrotation Zrotation
							End Site
							{
								OFFSET 0 0 0
							}
						}
					}
				}
			}
		}
	}
	JOINT RightUpLeg_virtual
	{
		OFFSET 0.000000 0.000000 0.000000
		CHANNELS 3 Xrotation Yrotation Zrotation
		JOINT RightUpLeg
		{
			OFFSET -15.569500 -6.655098 0.678600
			CHANNELS 3 Xrotation Yrotation Zrotation
			JOINT RightLeg
			{
				OFFSET -4.081825 -39.591045 13.023800
				CHANNELS 3 Xrotation Yrotation Zrotation
				JOINT RightFoot
				{
					OFFSET 4.081824 -37.707954 -15.979600
					CHANNELS 3 Xrotation Yrotation Zrotation
					JOINT RightToeBase
					{
						OFFSET -5.346400 -15.068900 20.645000
						CHANNELS 3 Xrotation Yrotation Zrotation
						JOINT RightToe_End
						{
							OFFSET -2.754700 0.931300 11.300900
							CHANNELS 3 Xrotation Yrotation Zrotation
							End Site
							{
								OFFSET 0 0 0
							}
						}
					}
				}
			}
		}
	}
	JOINT Spine_virtual
	{
		OFFSET 0.000000 0.000000 0.000000
		CHANNELS 3 Xrotation Yrotation Zrotation
		JOINT Spine
		{
			OFFSET -0.279200 12.230698 -2.892100
			CHANNELS 3 Xrotation Yrotation Zrotation
			JOINT Spine1
			{
				OFFSET -0.232667 10.192268 -1.242267
				CHANNELS 3 Xrotation Yrotation Zrotation
				JOINT Spine1_split
				{
					OFFSET -0.232667 10.192268 -1.242267
					CHANNELS 3 Xrotation Yrotation Zrotation
					JOINT Spine2
					{
						OFFSET -0.232667 10.192268 -1.242267
						CHANNELS 3 Xrotation Yrotation Zrotation
						JOINT Neck_virtual
						{
							OFFSET 0.000000 0.000000 0.000000
							CHANNELS 3 Xrotation Yrotation Zrotation
							JOINT Neck
							{
								OFFSET -0.418800 17.814194 8.416900
								CHANNELS 3 Xrotation Yrotation Zrotation
								JOINT Head
								{
									OFFSET 0.000000 7.031097 3.806800
									CHANNELS 3 Xrotation Yrotation Zrotation
									JOINT HeadTop_End
									{
										OFFSET 0.000000 24.646606 12.978600
										CHANNELS 3 Xrotation Yrotation Zrotation
										End Site
										{
											OFFSET 0 0 0
										}
									}
								}
							}
						}
						JOINT LeftShoulder_virtual
						{
							OFFSET 0.000000 0.000000 0.000000
							CHANNELS 3 Xrotation Yrotation Zrotation
							JOINT LeftShoulder
							{
								OFFSET 8.476499 7.247704 -3.868750
								CHANNELS 3 Xrotation Yrotation Zrotation
								JOINT LeftShoulder_split
								{
									OFFSET 8.476499 7.247704 -3.868750
									CHANNELS 3 Xrotation Yrotation Zrotation
									JOINT LeftArm
									{
										OFFSET 9.308998 -2.777710 0.208600
										CHANNELS 3 Xrotation Yrotation Zrotation
										JOINT LeftForeArm
										{
											OFFSET 29.972298 0.000000 0.000000
											CHANNELS 3 Xrotation Yrotation Zrotation
											JOINT LeftHand
											{
												OFFSET 26.026505 0.000000 0.000000
												CHANNELS 3 Xrotation Yrotation Zrotation
												End Site
												{
													OFFSET 0 0 0
												}
											}
										}
									}
								}
							}
						}
						JOINT RightShoulder_virtual
						{
							OFFSET 0.000000 0.000000 0.000000
							CHANNELS 3 Xrotation Yrotation Zrotation
							JOINT RightShoulder
							{
								OFFSET -7.570500 7.247704 -3.868750
								CHANNELS 3 Xrotation Yrotation Zrotation
								JOINT RightShoulder_split
								{
									OFFSET -7.570500 7.247704 -3.868750
									CHANNELS 3 Xrotation Yrotation Zrotation
									JOINT RightArm
									{
										OFFSET -9.308998 -2.777710 0.208500
										CHANNELS 3 Xrotation Yrotation Zrotation
										JOINT RightForeArm
										{
											OFFSET -29.972300 0.000000 0.000000
											CHANNELS 3 Xrotation Yrotation Zrotation
											JOINT RightHand
											{
												OFFSET -26.026505 0.000000 0.000000
												CHANNELS 3 Xrotation Yrotation Zrotation
												End Site
												{
													OFFSET 0 0 0
												}
											}
										}
									}
								}
							}
						}
					}
				}
			}
		}
	}
}
MOTION
Frames: 9
Frame Time: 0.03333333
-0.752966 80.569153 0.938198 0.000000 0.000000 0.000000 -2.320233 -12.742386 -1.149407 -31.487367 13.741297 13.053768 45.654395 4.240438 12.043888 -15.565617 3.191959 -13.914277 -2.730811 -0.204389 -0.707988 0.000000 0.000000 0.000000 -2.665601 -10.721394 -0.802433 -23.843627 -22.093324 -10.851396 42.567764 -0.853242 -15.295106 -19.024925 -0.724164 11.082013 0.436279 0.861349 0.394371 0.000000 0.000000 0.000000 -1.627208 -15.303688 -1.133202 3.863866 0.810542 1.232314 1.437470 1.446940 0.065955 2.522335 -0.635726 -0.555260 0.000000 0.000000 0.000000 0.599080 1.244795 0.184297 0.952680 -0.431645 4.344462 10.870272 12.473939 -3.406551 0.000000 0.000000 0.000000 1.704116 1.188178 -0.480110 0.653377 -0.029208 16.831092 1.666063 1.744882 -2.343582 -53.279495 -50.878089 -50.595203 -3.552849 -59.659968 -3.448073 0.000000 0.000000 0.000000 1.351267 1.555676 0.506658 0.594072 -1.876135 1.570260 -0.503845 2.368363 -0.092852 -112.886368 75.448462 107.670481 -2.655830 25.378478 1.250642 0.000000 0.000000 0.000000 
-0.583376 80.495903 0.754192 0.000000 0.000000 0.000000 -2.249853 -12.855375 -1.139234 -31.387745 13.509657 13.034043 45.392293 4.528045 12.055851 -15.714421 3.256646 -13.751564 -2.302298 -0.159556 -0.954081 0.000000 0.000000 0.000000 -2.649405 -10.905413 -0.758443 -23.554831 -22.108028 -10.976837 42.469601 -1.023463 -14.999574 -19.063340 -0.830675 10.938729 0.786294 0.898944 0.344480 0.000000 0.000000 0.000000 -1.971938 -15.594085 -1.279147 3.682861 0.869019 1.251688 1.140926 1.462174 0.128316 1.990640 -0.603517 -0.295453 0.000000 0.000000 0.000000 0.823626 1.259925 0.192465 0.858607 -0.536956 4.489628 11.641876 12.620117 -3.763140 0.000000 0.000000 0.000000 1.704106 1.209631 -0.389629 0.570168 0.227622 16.723728 1.995808 1.458501 -2.528742 -51.109261 -50.299661 -50.049246 -2.799577 -59.635679 -2.766779 0.000000 0.000000 0.000000 1.379969 1.532955 0.482863 0.503860 -2.239153 1.121529 0.322579 2.445013 -0.312596 -110.600051 75.803912 105.273719 -2.394316 26.007436 1.151560 0.000000 0.000000 0.000000 
-0.249358 80.352646 0.521042 0.000000 0.000000 0.000000 -2.193244 -13.259953 -1.125938 -31.318470 13.245667 12.778559 45.317171 4.983639 12.104188 -15.788590 3.361374 -13.897063 -1.788854 -0.089260 -1.155588 0.000000 0.000000 0.000000 -2.700064 -11.429914 -0.792194 -23.568442 -22.062913 -11.163383 42.721583 -1.168369 -14.642109 -18.824329 -0.949499 10.996726 0.525749 0.962954 0.245941 0.000000 0.000000 0.000000 -2.194846 -16.381133 -1.365660 3.449106 1.156137 1.352530 0.932164 1.698326 0.316145 1.760711 -1.112354 0.166910 0.000000 0.000000 0.000000 1.060647 1.504803 0.246783 0.559713 -0.530504 4.806328 12.124306 13.281890 -4.477726 0.000000 0.000000 0.000000 1.689013 1.475164 -0.170646 0.390635 0.382892 16.386198 2.241571 1.185571 -2.175549 -48.388444 -50.263031 -49.136617 -2.448818 -60.116006 -2.282577 0.000000 0.000000 0.000000 1.506280 1.703879 0.480541 0.365088 -2.313710 0.344618 1.027488 2.255233 -0.304439 -110.421455 76.580989 104.537015 -2.034762 27.467242 1.018824 0.000000 0.000000 0.000000 
0.241947 80.176918 0.228344 0.000000 0.000000 0.000000 -2.154115 -13.845553 -1.090726 -31.284479 13.000179 12.247801 45.444609 5.542111 12.163354 -15.800920 3.487940 -14.259756 -1.436220 -0.020114 -1.207767 0.000000 0.000000 0.000000 -2.723605 -12.382768 -0.844020 -23.856070 -21.830656 -11.349764 43.227219 -1.340225 -14.325135 -18.498932 -1.033749 11.029114 -0.071643 1.024014 0.197548 0.000000 0.000000 0.000000 -2.234557 -17.499776 -1.363117 3.213031 1.604804 1.622248 0.982879 2.083260 0.637507 2.147495 -2.281951 0.717213 0.000000 0.000000 0.000000 1.358530 1.914776 0.411225 0.064174 -0.376416 5.120888 12.161370 14.394957 -5.452412 0.000000 0.000000 0.000000 1.686285 1.905293 0.173162 0.174766 0.277699 15.938725 2.278780 1.266520 -1.760228 -45.808580 -50.546118 -47.946784 -2.466667 -60.517143 -1.983045 0.000000 0.000000 0.000000 1.751767 2.021865 0.569025 0.227082 -2.002507 -0.544931 1.510219 1.744463 -0.150862 -112.762981 77.545255 105.818618 -1.677089 29.082478 0.837403 0.000000 0.000000 0.000000 
0.933852 79.971031 -0.091450 0.000000 0.000000 0.000000 -2.165974 -14.535944 -0.998381 -31.199454 12.866326 11.400402 45.655669 6.163194 12.142227 -15.799286 3.633796 -14.562686 -1.368384 0.041275 -1.119772 0.000000 0.000000 0.000000 -2.759748 -13.586592 -0.875326 -24.398821 -21.332402 -11.563338 43.973871 -1.646318 -14.114866 -18.071767 -1.111249 10.785602 -0.250216 1.072135 0.287807 0.000000 0.000000 0.000000 -2.043891 -18.573791 -1.269670 3.029687 2.050439 2.084550 1.292661 2.471387 1.063860 2.433427 -3.256936 0.786952 0.000000 0.000000 0.000000 1.702991 2.319054 0.725737 -0.603713 -0.058648 5.280877 11.816567 15.781791 -6.508613 0.000000 0.000000 0.000000 1.716327 2.339929 0.624296 -0.051326 -0.146893 15.479288 1.913294 1.710099 -1.623903 -43.597033 -50.781415 -46.613545 -2.756506 -60.306363 -1.815685 0.000000 0.000000 0.000000 2.069227 2.379744 0.805097 0.101654 -1.343591 -1.407596 1.907572 0.900931 0.107353 -117.816023 78.233943 109.284816 -1.465876 30.313903 0.658762 0.000000 0.000000 0.000000 
1.801233 79.769386 -0.398415 0.000000 0.000000 0.000000 -2.234483 -15.297122 -0.821128 -31.052362 12.840429 10.268594 45.797115 6.755191 11.965574 -15.806888 3.786020 -14.642390 -1.466444 0.098959 -1.006945 0.000000 0.000000 0.000000 -2.733017 -14.816340 -0.805545 -25.422785 -20.582900 -11.978351 45.003539 -2.067009 -14.034292 -17.301235 -1.186819 10.430005 0.029967 1.094531 0.516211 0.000000 0.000000 0.000000 -1.736700 -19.481831 -1.151451 2.921972 2.289285 2.697775 1.795473 2.702790 1.541887 2.739321 -3.967573 0.813314 0.000000 0.000000 0.000000 2.090395 2.528846 1.160210 -1.362123 0.346929 5.202508 11.288975 17.162242 -7.341971 0.000000 0.000000 0.000000 1.845613 2.594115 1.129391 -0.287734 -0.759198 15.222443 1.705106 2.503446 -1.711349 -42.326990 -51.082111 -45.842266 -3.092581 -59.451927 -1.684343 0.000000 0.000000 0.000000 2.418136 2.620887 1.184477 -0.011936 -0.542471 -2.126069 2.180380 0.191118 0.413707 -123.310255 78.154822 112.956323 -1.485734 30.814497 0.505634 0.000000 0.000000 0.000000 
2.741639 79.617455 -0.682198 0.000000 0.000000 0.000000 -2.348071 -16.028048 -0.599949 -30.837556 12.823835 9.056453 45.820184 7.194552 11.638654 -15.780331 3.898487 -14.457559 -1.490259 0.153052 -0.977541 0.000000 0.000000 0.000000 -2.634791 -15.722257 -0.649397 -26.917405 -19.668370 -12.746877 46.142634 -2.354297 -14.120115 -16.018921 -1.173152 10.512901 0.238503 1.079104 0.739720 0.000000 0.000000 0.000000 -1.448114 -20.159201 -1.092703 2.883424 2.180463 3.322915 2.383779 2.631909 1.968411 2.518499 -3.793703 0.445157 0.000000 0.000000 0.000000 2.487719 2.431314 1.610678 -1.896861 0.731770 4.973585 10.998648 18.075425 -7.505954 0.000000 0.000000 0.000000 2.096468 2.527711 1.607248 -0.557519 -1.211557 15.248206 1.472553 3.127009 -2.222619 -42.067774 -51.762739 -46.076115 -3.036848 -58.190261 -1.337289 0.000000 0.000000 0.000000 2.703804 2.567584 1.613329 -0.124354 0.059733 -2.651381 2.411443 -0.074955 0.654462 -126.824428 77.426861 115.082021 -1.692522 30.628856 0.348928 0.000000 0.000000 0.000000 
3.660039 79.534439 -0.864300 0.000000 0.000000 0.000000 -2.483057 -16.626205 -0.423396 -30.496822 12.762092 7.964392 45.714777 7.386422 11.143271 -15.889846 3.910475 -13.957463 -1.272968 0.194796 -1.061566 0.000000 0.000000 0.000000 -2.500324 -16.105883 -0.515652 -28.536279 -18.892686 -13.737174 47.073800 -2.432332 -14.411072 -14.403349 -1.079000 11.217921 0.168250 1.044903 0.831157 0.000000 0.000000 0.000000 -1.331176 -20.389484 -1.239556 2.892104 1.667719 3.764845 2.876907 2.180956 2.227562 2.104076 -2.989014 -0.278156 0.000000 0.000000 0.000000 2.807406 1.934805 1.929375 -1.911250 0.957878 4.757243 11.249741 17.917343 -6.527059 0.000000 0.000000 0.000000 2.438052 2.053650 1.941849 -0.906396 -1.302986 15.739063 1.157238 3.532367 -2.764597 -42.474662 -53.146569 -47.204892 -2.548913 -56.744771 -0.775030 0.000000 0.000000 0.000000 2.906369 2.119873 1.951452 -0.253791 0.251381 -3.014070 2.676272 -0.062553 0.777212 -127.178081 76.237021 115.077513 -2.019202 30.060284 0.160827 0.000000 0.000000 0.000000 
4.348197 79.519775 -0.809391 0.000000 0.000000 0.000000 -2.627977 -16.983714 -0.478339 -30.069184 12.551797 7.329332 45.473832 7.270824 10.530235 -16.290291 3.765390 -13.201052 -0.941699 0.201681 -1.174621 0.000000 0.000000 0.000000 -2.403960 -15.962765 -0.601679 -29.766637 -18.680057 -14.567680 47.503238 -2.450409 -14.818852 -12.965987 -1.039765 12.183709 0.115537 1.004860 0.758774 0.000000 0.000000 0.000000 -1.526529 -20.183621 -1.740873 2.889507 0.793834 3.797860 3.251200 1.388385 2.206375 1.894740 -1.666281 -0.661633 0.000000 0.000000 0.000000 2.995538 1.109761 1.973444 -1.146599 0.935801 4.766328 12.317113 16.302608 -4.039130 0.000000 0.000000 0.000000 2.864287 1.179165 2.015315 -1.322030 -1.018900 16.830428 0.569893 3.759856 -3.054479 -43.507103 -55.299233 -49.070640 -1.639725 -55.196323 -0.014806 0.000000 0.000000 0.000000 3.062447 1.295036 2.031580 -0.376690 -0.106882 -3.068293 2.684493 0.200127 0.646941 -124.679161 74.958854 113.464516 -2.368209 29.439061 -0.059643 0.000000 0.000000 0.000000 
